<svg xmlns:rdf="http://www.w3.org/1999/02/22-rdf-syntax-ns#" xmlns="http://www.w3.org/2000/svg" enable-background="new 0 0 289.67 170.043" xml:space="preserve" height="306.78" viewBox="0 0 306.782 306.78202" width="306.78" version="1.1" y="0px" x="0px" xmlns:cc="http://creativecommons.org/ns#" xmlns:dc="http://purl.org/dc/elements/1.1/"><g transform="translate(2.8248 49.969)"><g><path d="m142.11-2.0957c-8.27-0.4421-16.46 5.3931-23.48 12.7-7.02 7.306-12.88 16.273-15.99 23.175-3.262 7.248-13.448 14.602-21.638 15.985-13.404 2.263-26.429 6.116-39.139 10.605-11.168 3.945-22.032 9.539-31.086 17.334-2.9104 2.506-7.0464 6.456-10.027 10.861-1.4903 2.2029-2.7053 4.5233-3.2676 6.9375-0.56231 2.4142-0.41247 5.0153 0.95117 7.2676 0.054379 0.09 0.11577 0.17553 0.18359 0.25586 3.3416 3.9535 9.7669 7.5361 15 6.3984-6.8235-2.66-8.5948-4.23-11.797-8.83-0.6967-1.209-0.8267-2.524-0.4411-4.18 0.3962-1.701 1.37-3.661 2.6856-5.605 2.6311-3.89 6.5775-7.707 9.3225-10.071 8.57-7.379 18.993-12.774 29.808-16.593 12.578-4.4426 22.733-6.8094 35.821-9.0194 16.525-2.7902 23.761-7.1707 30.551-20.726 5.2287-10.438 21.89-28.559 21.661-11.819-0.0757 5.5202-2.0532 10.891-1.4356 16.123 0.61762 5.2318 3.4851 10.186 10.127 13.66l1.8555-3.543c-5.7616-3.0137-6.8304-5.8086-7.1259-10.056-0.80478-13.489 4.7512-23.588 9.0614-34.552 0.34547-0.89463 0.60446-1.7573 0.66601-2.6797 0.0616-0.92235-0.12079-2.0001-0.79883-2.8633-0.35626-0.45348-0.89091-0.73113-1.4668-0.76172zm126.72 50.164c-6.7918-0.21307-13.552 3.656-19.641 7.918-5.9106 4.1371-9.7751 7.7596-13.48 9.3529-2.5501 1.0967-8.3159 2.5146-11.735 2.6598-12.409 0.52689-27.673-0.57439-37.646-3.4404-8.4464-2.4272-17.459-5.3104-25.434-8.1191l-1.3301 3.7715c8.0562 2.8375 17.13 5.7406 25.658 8.1914 9.7389 2.7986 22.998 4.0853 34.825 4.2862 6.6972 0.11376 14.811-0.984 20.509-4.9054 3.6989-2.5457 6.2122-5.2204 10.926-8.5195 3.4666-2.4264 7.0612-4.4564 10.496-5.7598-2.6804 2.2938-5.1501 6.1405-4.6094 11.484-1.2439 0.56459-2.3355 1.3822-2.998 2.5527-0.72637 1.2834-0.98285 2.9596-0.50977 4.5234-2.9377 3.1378-3.1589 8.189-0.38867 11.93-1.5322 0.65951-3.0842 1.2676-4.8691 1.5059-2.8406 0.37914-5.8114-1.4244-11.6-3.0254-7.6937-1.3309-17.203 6.0373-19.683 11.668 4.6573-2.8697 13.538-8.8519 18.47-7.8188 5.4001 2.9156 9.7907 3.6143 13.34 3.1406 3.7236-0.497 6.4548-2.091 8.5391-2.9043 1.4861-0.57859 1.7306-2.5784 0.42773-3.498-3.6995-2.615-3.31-7.0465-0.66406-8.8945 0.9312-0.65054 1.1344-1.9451 0.44726-2.8496-0.46347-0.6093-0.40861-1.1364-0.0293-1.8066 0.37931-0.67021 1.1499-1.1671 1.7109-1.1992 1.2354-0.07068 2.1109-1.2349 1.8359-2.4414-1.141-5.0167 0.82039-7.3773 3.2793-9.4355 1.2294-1.0291 2.5814-1.8546 3.7344-2.6875 0.57649-0.41644 1.114-0.82028 1.6035-1.4238 0.48951-0.60354 0.96875-1.6844 0.6875-2.7617-0.22399-0.85827-0.98647-1.4665-1.873-1.4941z" style="color:#000000;fill-rule:evenodd;text-indent:0;block-progression:tb;text-decoration-line:none;enable-background:accumulate;text-transform:none;fill:#00009a"/><path d="m16.553 105.33c9.0141 3.6405 13.6 5.6598 21.565 6.9063l3.741-2.8424c-2.4802-0.29284-5.0579-0.62085-7.755-0.99103-4.4442-0.60997-13.19-2.175-17.551-3.0729z" style="color:#000000;fill-rule:evenodd;text-indent:0;block-progression:tb;text-decoration-line:none;enable-background:accumulate;text-transform:none;fill:#00009a"/></g><g transform="translate(4.3344e-7 -.0000015588)"><path d="m89.141 125.99c0.81901 3.6981 3.1971 9.9791 6.1719 14.49 3.8159 5.787 6.3094 8.8554 11.641 14.722 4.5371 4.9931 9.2734 9.4393 13.764 12.381 4.4902 2.9415 8.9942 4.6424 12.881 2.7891 1.2041-0.57418 2.0958-1.6887 2.4922-2.8535 0.39643-1.1648 0.43257-2.3665 0.34766-3.6445-0.16982-2.5561-0.88279-5.5097-1.5625-8.875-0.83754-4.1467-1.2881-8.8588-1.4713-13.774-0.11913-3.1958-0.5373-7.2136 1.6913-16.147-3.7898 4.2961-5.4922 14.615-5.2307 19.461 0.21995 4.0771 0.42574 7.96 1.0908 11.253 0.69389 3.4355 1.3607 6.3667 1.4922 8.3457 0.0657 0.98953-0.0175 1.7184-0.14454 2.0918-0.12707 0.37337-0.16347 0.40524-0.42773 0.53125-1.7711 0.84457-4.953 0.10597-8.9668-2.5234s-8.6004-6.8871-12.996-11.725c-4.7422-5.2188-7.386-8.4464-11.315-13.453-4.1879-5.3368-5.7256-7.0093-9.4566-13.07z" style="color:#000000;fill-rule:evenodd;text-indent:0;block-progression:tb;text-decoration-line:none;enable-background:accumulate;text-transform:none;fill:#2121e7"/><path d="m168.41 31.105c-8.2726-0.44211-16.463 5.3931-23.484 12.699-7.021 7.3061-12.875 16.273-15.984 23.176-3.98 8.8346-12.25 14.398-21.643 15.984-13.404 2.2632-26.429 6.1163-39.139 10.605-11.168 3.9444-22.032 9.5387-31.086 17.334-2.9107 2.5061-7.0448 6.4554-10.025 10.861-1.4903 2.2029-2.7053 4.5233-3.2676 6.9375-0.56231 2.4142-0.41442 5.0153 0.94922 7.2676 0.05438 0.09 0.11577 0.17553 0.18359 0.25586 2.0059 2.3732 4.2219 4.2669 6.7477 5.3291 6.2885 2.6445 9.0338 2.9457 15.346 3.2276-6.8137-2.711-10.678-4.8505-14.403-7.2566-1.6183-0.94261-3.1228-2.1601-4.4912-3.7434-0.69211-1.2083-0.8221-2.5206-0.4375-4.1719 0.39618-1.701 1.37-3.6608 2.6855-5.6055 2.6312-3.8894 6.5775-7.7071 9.3223-10.07 8.5706-7.3793 18.994-12.774 29.809-16.594 12.578-4.4426 22.993-7.8119 36.175-9.3729 14.447-1.7109 21.142-7.279 28.07-19.523 6.12-10.815 27.162-30.785 23.788-12.669-1.0108 5.4274-1.5164 10.856-1.4336 16.123 0.11763 7.4818 1.3621 12.406 10.127 13.66 29.274 4.1886 55.616 15.233 77.398 26.988 8.2869 4.5389 14.838 11.024 21.732 17.662 0.63858 0.61396 1.6049 0.73475 2.375 0.29687 1.7249-0.98097 7.1625-1.4838 11.32-0.73242 2.0789 0.37569 3.8814 1.0467 4.75 1.668 0.29062 0.20787 0.33538 0.31668 0.42773 0.44531-1.9295 0.61462-3.5228 1.4758-4.3848 2.8672-1.1058 1.7848-0.98029 3.8569-0.45508 5.6602 0.96747 3.3218 3.1981 6.4575 4.6523 8.9316-1.4431 3.818-0.20027 7.5636 0.92188 10.494 0.62134 1.6226 1.1691 3.0874 1.3418 4.2637 0.0683 0.46527 0.0509 0.83893 0.0176 1.2129-4.4224-2.3159-7.758-5.9009-10.836-10.092-3.4976-4.7623-6.3645-10.486-11.076-14.527-4.8463-4.1567-14.387-3.3266-17.072 0.45958 2.7622-1.4771 10.771-1.0241 14.255 2.3803 3.9335 3.8428 7.0137 9.0763 10.67 14.055 3.6562 4.9784 7.9465 9.7753 14.359 12.381 0.86238 0.35062 1.8526 0.0599 2.3887-0.70117 1.2754-1.8108 1.5214-3.9146 1.252-5.75-0.26949-1.8355-0.95216-3.5092-1.5664-5.1133-1.2285-3.2082-2.1472-5.7735-0.72851-8.373 0.32749-0.60071 0.32523-1.3271-0.006-1.9258-1.6209-2.9354-4.0264-6.3838-4.7344-8.8144-0.35396-1.2153-0.29167-1.9376 0.0156-2.4336 0.3073-0.496 1.1304-1.171 3.3359-1.5918 0.64353-0.12238 1.1864-0.55211 1.4531-1.1504 0.48863-1.0962 0.5485-2.3946 0.13281-3.4629-0.41568-1.0683-1.1817-1.8555-2.0391-2.4688-1.7147-1.2265-3.9333-1.9101-6.3652-2.3496-4.2813-0.77368-9.0108-0.76369-12.559 0.62696-6.5611-6.3303-13.139-12.76-21.658-17.426-24.22-13.271-47.06-22.422-76.37-27.884-6.241-1.163-6.8307-5.7228-7.324-9.9014-0.65056-15.028 3.6816-22.41 8.1775-33.847 0.34547-0.89463 0.60446-1.7554 0.66601-2.6777 0.0616-0.92235-0.12079-2.0001-0.79882-2.8633-0.35582-0.45299-0.88966-0.73058-1.4648-0.76172z" style="color:#000000;fill-rule:evenodd;text-indent:0;block-progression:tb;text-decoration-line:none;enable-background:accumulate;text-transform:none;fill:#2121e7"/><path d="m196.29 108.47c-1.7872 0.0497-3.7181 0.2106-5.7539 0.47656-8.1434 1.0638-17.941 3.8143-26.465 8.0547-9.2942 4.6236-20.489 9.7681-32.326 19.771l1.291 1.5274c11.621-9.8206 22.589-14.863 31.926-19.508 8.284-4.1211 17.925-6.8284 25.832-7.8613 3.9535-0.51647 7.4788-0.61202 10.141-0.2832 2.6618 0.32882 4.3577 1.1483 4.875 1.9551 0.46444 0.72437 0.47027 1.1982 0.19336 1.8418-0.27691 0.64357-0.96758 1.4281-2.0117 2.2188-2.0883 1.5814-5.4907 3.1783-9.0586 4.6836s-7.3054 2.935-10.193 4.3242c-1.444 0.6946-2.6738 1.3722-3.6035 2.0996-0.92968 0.72745-1.6962 1.5734-1.6465 2.7207 0.0251 0.57869 0.4313 1.2129 0.9336 1.4746 0.5023 0.26174 1.0094 0.29969 1.5684 0.29102 1.118-0.0173 2.5189-0.29868 4.3008-0.70703 3.5638-0.81671 8.5751-2.1789 14.666-3.2442 8.7938-1.538 19.807-2.4556 31.781-0.2049 4.6133 0.86714 9.3722 2.3052 14.199 4.2586-6.033-4.3969-12.615-6.2648-19.52-7.08-10.065-1.1426-19.266-0.26105-26.805 1.0575-6.1923 1.083-11.279 2.4642-14.768 3.2637-1.7443 0.39974-3.1066 0.64417-3.8848 0.65625-0.20382 0.003-0.21562-0.0153-0.32032-0.0332 0.0544-0.1581 0.13233-0.41045 0.72852-0.87695 0.72016-0.56351 1.8577-1.2089 3.2383-1.873 2.7612-1.3282 6.4951-2.76 10.105-4.2832 3.6103-1.5232 7.0939-3.1219 9.4863-4.9336 1.1962-0.90583 2.1441-1.8674 2.6406-3.0215 0.49657-1.1541 0.41157-2.5318-0.3457-3.7129-1.112-1.7343-3.3969-2.499-6.3144-2.8594-1.4588-0.18021-3.1014-0.24306-4.8887-0.19336z" style="color:#000000;fill-rule:evenodd;text-indent:0;block-progression:tb;text-decoration-line:none;enable-background:accumulate;text-transform:none;fill:#2121e7"/><path d="m246.94 132.36c-7.6468-2.9871-15.648-0.13075-26.26 0.90026-8.5616 0.83178-17.696 0.88828-23.106 0.92886-28.424 0.21322-36.696 9.9226-65.156 11.881l0.27539 3.9902c11.3-0.73557 22.09-3.5843 31.065-6.2427 11.262-3.336 20.528-6.516 34.145-6.4765 7.0713 0.0205 15.521-0.35043 23.279-1.5824 10.41-1.653 18.312-4.8699 25.758-3.3986zm-198.89 7.5322c9.0141 3.6405 13.6 5.6598 21.565 6.9063 13.989 2.1893 24.164 2.7914 34.33 3.3808l-1.6426-3.8047c-11.042-0.64031-22.13-1.4096-36.701-3.4095-4.4442-0.60997-13.19-2.175-17.551-3.0729z" style="color:#000000;fill-rule:evenodd;text-indent:0;block-progression:tb;text-decoration-line:none;enable-background:accumulate;text-transform:none;fill:#2121e7"/></g></g></svg>
